<svg xmlns="http://www.w3.org/2000/svg" width="167.873" height="60" viewBox="0 0 167.873 60"><defs><style>.a{fill:#b23428;}.b{fill:#1a1a1a;}.c{fill:#fff;}.d{fill:#808284;}</style></defs><rect class="a" width="60.001" height="60"/><g transform="translate(12.349 13.263)"><path class="b" d="M-149.771,177.675c0-4.958,1.417-5.743,2.935-5.743,1.543,0,2.935.784,2.935,5.743,0,4.985-1.392,5.769-2.935,5.769-1.519,0-2.935-.784-2.935-5.769m6.021,6.73h1.368V166.341H-143.9v6.654h-.052a2.985,2.985,0,0,0-3.138-2.327c-2.959,0-4.3,2.378-4.3,7.007,0,4.656,1.342,7.034,4.3,7.034a3.309,3.309,0,0,0,3.29-2.53h.05Z" transform="translate(207.802 -165.823)"/><path class="b" d="M-134.746,177.361c.051-3.339.987-4.554,2.86-4.554s2.807,1.215,2.858,4.554Zm5.693,3.466c-.253,2.353-1.24,3.492-2.833,3.492-1.493,0-2.86-1.189-2.86-5.061v-.631h7.338v-.556c0-4.479-1.343-6.528-4.328-6.528-2.96,0-4.629,2.353-4.629,7.007,0,5.061,1.669,7.035,4.5,7.035,2.53,0,4.1-1.9,4.329-4.757Z" transform="translate(205.274 -166.698)"/><path class="b" d="M-119.232,178.6c-1.9-.734-2.579-1.847-2.579-3.188,0-2.757,1.719-3.87,4-3.87,2.531,0,3.694,1.29,3.694,3.744v.379h-1.517v-.379c0-1.745-.811-2.48-2.2-2.48-1.771,0-2.455.937-2.455,2.277,0,.937.3,1.67,1.82,2.252l2.2.836a3.442,3.442,0,0,1,2.505,3.415c0,2.3-1.317,4-4.15,4-2.758,0-4.125-1.139-4.125-4.175v-.431h1.521v.354c0,1.973.858,2.986,2.579,2.986a2.36,2.36,0,0,0,2.658-2.4,2.415,2.415,0,0,0-1.822-2.479Z" transform="translate(202.865 -166.698)"/><rect class="b" width="1.516" height="18.064" transform="translate(92.717 0.518)"/><path class="b" d="M-94.745,180.525c0,2.4-1.264,3.795-3.112,3.795-1.314,0-2.125-1.062-2.125-2.63a2.616,2.616,0,0,1,2.3-2.783l1.266-.329c.606-.152,1.466-.431,1.62-.887h.049Zm-4.909-4.68c0-1.949.784-3.037,2.581-3.037a2.06,2.06,0,0,1,2.327,2.328c0,1.568-.227,1.822-1.29,2.125l-2.858.809a3.539,3.539,0,0,0-2.708,3.718c0,2.329,1.063,3.8,3.417,3.8a3.277,3.277,0,0,0,3.464-2.277h.052v.456c0,1.392.758,1.669,1.946,1.669a2.078,2.078,0,0,0,.709-.151v-1.113h-.43c-.532,0-.784-.355-.784-1.113v-7.945c0-2.125-1.013-3.568-3.795-3.568-2.835,0-4.15,1.544-4.15,4.3Z" transform="translate(199.427 -166.698)"/><path class="b" d="M-86.272,171.907h1.516v9.463c0,2.176.734,3.011,2.328,3.011,1.723,0,2.936-1.367,2.936-3.441v-9.033h1.518v13.435h-1.366V183.47h-.05a3.776,3.776,0,0,1-3.442,2.176c-2.049,0-3.441-1.063-3.441-3.593Z" transform="translate(196.849 -166.759)"/><path class="b" d="M-71.247,171.846h1.518v2.1h.051a3.555,3.555,0,0,1,3.39-2.4,1.877,1.877,0,0,1,.532.077v1.517a3.88,3.88,0,0,0-.734-.077c-1.671,0-3.239,1.215-3.239,3.82v8.4h-1.518Z" transform="translate(194.322 -166.698)"/><path class="b" d="M-61.15,170.971h1.52v13.435h-1.52Zm0-4.63h1.52v2.581h-1.52Z" transform="translate(192.624 -165.823)"/><path class="b" d="M-53.2,177.361c.051-3.339.986-4.554,2.859-4.554s2.808,1.215,2.859,4.554Zm5.693,3.466c-.253,2.353-1.239,3.492-2.834,3.492-1.492,0-2.859-1.189-2.859-5.061v-.631h7.337v-.556c0-4.479-1.343-6.528-4.327-6.528-2.96,0-4.628,2.353-4.628,7.007,0,5.061,1.669,7.035,4.5,7.035,2.531,0,4.1-1.9,4.327-4.757Z" transform="translate(191.559 -166.698)"/><path class="b" d="M-39.676,171.846h1.518v2.1h.05a3.556,3.556,0,0,1,3.39-2.4,1.85,1.85,0,0,1,.532.077v1.517a3.851,3.851,0,0,0-.733-.077c-1.67,0-3.239,1.215-3.239,3.82v8.4h-1.518Z" transform="translate(189.012 -166.698)"/><path class="c" d="M-196.213,178.1a14.761,14.761,0,0,0-3.79-3.59,11.789,11.789,0,0,0-6.518-2.008,12.284,12.284,0,0,0-8.944,3.728,12.189,12.189,0,0,0-3.742,8.911,12.189,12.189,0,0,0,3.739,8.911,12.267,12.267,0,0,0,8.936,3.728,12.557,12.557,0,0,0,9.047-3.73,12.1,12.1,0,0,0,3.819-8.928V165.718h-2.546Zm-3.048,14.169h0a10.1,10.1,0,0,1-7.253,2.965,9.828,9.828,0,0,1-7.154-2.979,9.728,9.728,0,0,1-2.993-7.114,9.729,9.729,0,0,1,2.993-7.113,9.832,9.832,0,0,1,7.154-2.98,9.459,9.459,0,0,1,6.961,2.824,12.109,12.109,0,0,1,3.34,7.345A9.523,9.523,0,0,1-199.261,192.271Zm10.129-26.553v31.339h2.547V165.718Z" transform="translate(219.208 -165.718)"/><path class="d" d="M-148.84,203.89a2.023,2.023,0,0,1-2.244-2.21,2.28,2.28,0,0,1,2.468-2.416,3.813,3.813,0,0,1,.916.112l-.095.975a2.825,2.825,0,0,0-.882-.147,1.205,1.205,0,0,0-1.207,1.372,1.171,1.171,0,0,0,1.259,1.32,1.978,1.978,0,0,0,.864-.181l.094.985a3.771,3.771,0,0,1-1.174.19" transform="translate(207.75 -171.36)"/><path class="d" d="M-142.579,203.911c-1.363,0-2.01-.638-2.01-1.656v-2.909h1.114V202c0,.69.327.984.958.984.68,0,.948-.38.948-1.027v-2.615h1.1V202.1c0,1-.63,1.811-2.106,1.811" transform="translate(206.658 -171.374)"/><path class="d" d="M-136.192,203.912a4.03,4.03,0,0,1-.881-.1l.043-.982a2.64,2.64,0,0,0,.948.164c.373,0,.683-.173.683-.509,0-.681-1.8-.3-1.8-1.769,0-.881.664-1.467,1.9-1.467a6.626,6.626,0,0,1,.819.069l-.035.932a3.274,3.274,0,0,0-.828-.113c-.474,0-.673.182-.673.458,0,.638,1.838.371,1.838,1.752,0,.941-.759,1.57-2.01,1.57" transform="translate(205.415 -171.357)"/><path class="d" d="M-129.647,200.3v3.539h-1.114V200.3h-1.173v-.949h3.461v.949Z" transform="translate(204.529 -171.374)"/><path class="d" d="M-122.709,201.583a1.167,1.167,0,0,1-1.175,1.329c-.759,0-1.112-.57-1.112-1.355a1.179,1.179,0,0,1,1.14-1.329c.68,0,1.147.467,1.147,1.355m1.191-.061a2.087,2.087,0,0,0-2.262-2.269,2.329,2.329,0,0,0-2.407,2.373,2.07,2.07,0,0,0,2.243,2.269,2.32,2.32,0,0,0,2.426-2.373" transform="translate(203.563 -171.358)"/><path class="d" d="M-113.578,203.834l-.3-2.157c-.052-.381-.1-.725-.121-.984h-.008c-.06.284-.137.595-.225.888l-.726,2.253h-1.155l-.647-2.079c-.1-.319-.209-.716-.277-1.044h-.007c-.017.334-.052.663-.1,1.026l-.268,2.1h-1.113l.7-4.488h1.4l.732,2.279a8.094,8.094,0,0,1,.216.845h.008a6.607,6.607,0,0,1,.216-.828l.759-2.3h1.424l.683,4.488Z" transform="translate(202.275 -171.374)"/><path class="d" d="M-103.319,203.89a2.023,2.023,0,0,1-2.245-2.21,2.28,2.28,0,0,1,2.47-2.416,3.821,3.821,0,0,1,.915.112l-.1.975a2.805,2.805,0,0,0-.879-.147,1.2,1.2,0,0,0-1.208,1.372,1.17,1.17,0,0,0,1.259,1.32,1.967,1.967,0,0,0,.863-.181l.1.985a3.767,3.767,0,0,1-1.174.19" transform="translate(200.094 -171.36)"/><path class="d" d="M-96.806,202.246h-1.209l.4-1.087c.077-.206.147-.44.2-.639h.008c.051.2.138.457.215.664Zm1.769,1.588-1.658-4.488h-1.32l-1.665,4.488h1.121l.286-.785h1.733l.276.785Z" transform="translate(199.104 -171.374)"/><path class="d" d="M-89.626,200.6c0,.388-.354.577-.881.577-.06,0-.19,0-.319-.007V200.1c.146,0,.328-.009.465-.009.561,0,.734.207.734.51m1.243,1.829a.973.973,0,0,0-.751-1v-.009a1.027,1.027,0,0,0,.69-.983c0-.708-.492-1.122-1.7-1.122-.595,0-1.328.025-1.786.025v4.488c.69,0,1.276.017,1.6.017,1.476,0,1.942-.742,1.942-1.415m-1.174,0c0,.372-.25.622-.794.622a3.957,3.957,0,0,1-.474-.026v-1.149c.113-.009.284-.009.38-.009.561,0,.888.165.888.561" transform="translate(197.801 -171.369)"/><rect class="d" width="1.114" height="4.488" transform="translate(111.575 27.972)"/><path class="d" d="M-78.04,203.834l-1.347-2.193a7.653,7.653,0,0,1-.421-.819h-.009c.017.216.025.44.025.794v2.218h-1.069v-4.488h1.494l1.3,2.14a6.8,6.8,0,0,1,.467.855h.007c-.017-.268-.025-.639-.025-1.1l-.008-1.891h1.077v4.488Z" transform="translate(195.939 -171.374)"/><path class="d" d="M-72.8,203.834v-4.488h2.762v.873h-1.649v.9h1.57v.846h-1.57v.983h1.649v.889Z" transform="translate(194.584 -171.374)"/><path class="d" d="M-65.171,200.3v3.539h-1.114V200.3H-67.46v-.949H-64v.949Z" transform="translate(193.685 -171.374)"/><path class="d" d="M-60.5,203.912a4.015,4.015,0,0,1-.879-.1l.042-.982a2.642,2.642,0,0,0,.949.164c.373,0,.683-.173.683-.509,0-.681-1.8-.3-1.8-1.769,0-.881.664-1.467,1.9-1.467a6.573,6.573,0,0,1,.818.069l-.034.932a3.253,3.253,0,0,0-.828-.113c-.473,0-.672.182-.672.458,0,.638,1.838.371,1.838,1.752,0,.941-.759,1.57-2.011,1.57" transform="translate(192.683 -171.357)"/><rect class="d" width="1.115" height="4.488" transform="translate(139.144 27.972)"/><path class="d" d="M-44.895,203.834l-1.347-2.193a7.385,7.385,0,0,1-.423-.819h-.009c.018.216.027.44.027.794v2.218h-1.071v-4.488h1.494l1.3,2.14a7.006,7.006,0,0,1,.465.855h.008c-.017-.268-.026-.639-.026-1.1l-.009-1.891h1.08v4.488Z" transform="translate(190.365 -171.374)"/><path class="d" d="M-37.89,203.89a2.023,2.023,0,0,1-2.244-2.21,2.28,2.28,0,0,1,2.469-2.416,3.8,3.8,0,0,1,.915.112l-.1.975a2.809,2.809,0,0,0-.879-.147c-.769,0-1.208.553-1.208,1.372a1.171,1.171,0,0,0,1.259,1.32,1.969,1.969,0,0,0,.863-.181l.094.985a3.767,3.767,0,0,1-1.174.19" transform="translate(189.089 -171.36)"/><path class="d" d="M-32.522,203.872a.7.7,0,0,1-.7.708.71.71,0,0,1-.707-.708.71.71,0,0,1,.707-.708.7.7,0,0,1,.7.708" transform="translate(188.046 -172.016)"/><rect class="d" width="97.233" height="0.674" transform="translate(56.913 22.918)"/></g></svg>